<?xml version="1.0" encoding="UTF-8"?>
<svg xmlns="http://www.w3.org/2000/svg" viewBox="0 0 64 64">
    <g id="spinner">
        <circle cx="32" cy="12.985" r="4.985" fill="#404040"/>
        <path d="M22.08,22.08c-1.946,1.945 -5.105,1.945 -7.051,0c-1.945,-1.946 -1.945,-5.105 0,-7.051c1.946,-1.945 5.105,-1.945 7.051,0c1.945,1.946 1.945,5.105 0,7.051Z" fill="#404040"/>
        <path d="M17.97,32c0,2.751 -2.233,4.985 -4.985,4.985c-2.751,0 -4.985,-2.234 -4.985,-4.985c0,-2.751 2.234,-4.985 4.985,-4.985c2.752,0 4.985,2.234 4.985,4.985Z" fill="#404040"/>
        <path d="M22.08,41.92c1.945,1.946 1.945,5.105 0,7.051c-1.946,1.945 -5.105,1.945 -7.051,0c-1.945,-1.946 -1.945,-5.105 0,-7.051c1.946,-1.945 5.105,-1.945 7.051,0Z" fill="#666"/>
        <circle cx="32" cy="51.015" r="4.985" fill="#8c8c8c"/>
        <path d="M41.92,41.92c1.946,-1.945 5.105,-1.945 7.051,0c1.945,1.946 1.945,5.105 0,7.051c-1.946,1.945 -5.105,1.945 -7.051,0c-1.945,-1.946 -1.945,-5.105 0,-7.051Z" fill="#b3b3b3"/>
        <path d="M46.03,32c0,-2.751 2.233,-4.985 4.985,-4.985c2.751,0 4.985,2.234 4.985,4.985c0,2.751 -2.234,4.985 -4.985,4.985c-2.752,0 -4.985,-2.234 -4.985,-4.985Z" fill="#d9d9d9"/>
    </g>
</svg>
