<?xml version="1.0" standalone="no"?>
<!DOCTYPE svg PUBLIC "-//W3C//DTD SVG 20010904//EN"
 "http://www.w3.org/TR/2001/REC-SVG-20010904/DTD/svg10.dtd">
<svg version="1.0" xmlns="http://www.w3.org/2000/svg"
 width="400.000000pt" height="400.000000pt" viewBox="0 0 400.000000 400.000000"
 preserveAspectRatio="xMidYMid meet">

<g transform="translate(0.000000,400.000000) scale(0.100000,-0.100000)"
fill="#000000" stroke="none">
<path d="M0 2000 l0 -2000 2000 0 2000 0 0 2000 0 2000 -2000 0 -2000 0 0
-2000z m2055 1155 c25 -24 25 -27 25 -187 -1 -171 -3 -183 -48 -207 -30 -16
-65 -7 -92 21 -18 20 -20 35 -20 185 0 161 0 164 25 188 15 16 36 25 55 25 19
0 40 -9 55 -25z m-444 -108 c22 -17 159 -255 166 -288 4 -22 -1 -35 -25 -59
-61 -61 -92 -41 -186 120 -42 73 -78 141 -81 153 -3 13 3 36 15 55 17 27 26
32 57 32 21 0 45 -6 54 -13z m-216 -377 c140 -82 158 -98 158 -141 0 -36 -40
-79 -75 -79 -11 0 -81 35 -156 77 -146 84 -170 110 -151 163 27 71 75 67 224
-20z m56 -389 c26 -32 24 -77 -6 -106 -24 -24 -27 -25 -185 -25 -158 0 -161 1
-185 25 -27 26 -33 71 -12 97 27 34 51 38 210 36 153 -3 159 -4 178 -27z m76
-303 c35 -33 31 -81 -9 -111 -80 -60 -248 -147 -282 -147 -56 0 -87 67 -52
115 22 30 257 163 290 164 18 1 39 -8 53 -21z m217 -219 c41 -32 34 -65 -40
-196 -73 -129 -102 -163 -140 -163 -31 0 -74 42 -74 73 0 26 141 275 167 295
25 18 57 15 87 -9z m307 -91 c5 -7 6 -21 3 -30 -3 -10 -1 -18 5 -18 14 0 15
-246 1 -286 -14 -38 -51 -56 -85 -41 -13 7 -29 25 -35 41 -14 40 -13 286 1
286 6 0 8 8 4 19 -3 10 1 25 8 33 17 17 87 15 98 -4z m-721 -803 l0 -85 44 0
c25 0 48 -4 51 -10 4 -6 -16 -10 -53 -10 -39 0 -61 4 -64 13 -7 24 4 177 13
177 5 0 9 -38 9 -85z m274 54 c49 -57 29 -136 -38 -159 -28 -9 -40 -8 -65 5
-38 19 -51 43 -51 95 0 56 34 90 89 90 32 0 44 -6 65 -31z m178 -64 c44 -102
42 -95 25 -95 -8 0 -19 11 -25 24 -11 25 -62 44 -82 31 -6 -4 -15 -18 -20 -31
-9 -23 -30 -34 -30 -15 0 11 48 138 61 163 17 32 32 16 71 -77z m193 70 c35
-34 35 -106 0 -140 -20 -21 -34 -25 -80 -25 l-55 0 0 95 0 95 55 0 c46 0 60
-4 80 -25z m93 -73 c2 -77 0 -92 -13 -92 -12 0 -15 16 -15 96 0 72 3 95 13 92
8 -3 13 -34 15 -96z m118 26 l49 -73 3 73 c4 107 22 88 22 -23 0 -117 -10
-121 -70 -30 -23 36 -46 65 -51 65 -5 0 -9 -29 -9 -65 0 -37 -4 -65 -10 -65
-6 0 -10 38 -10 95 0 73 3 95 14 95 7 0 35 -33 62 -72z m264 52 c20 -20 26
-40 12 -40 -4 0 -15 9 -25 20 -21 25 -68 26 -90 2 -60 -66 3 -158 87 -126 26
10 19 42 -9 46 -40 5 -34 23 8 26 35 3 37 2 37 -27 0 -17 1 -34 3 -38 1 -5
-15 -16 -35 -26 -32 -16 -43 -17 -73 -7 -46 15 -65 44 -65 98 0 58 33 92 90
92 27 0 47 -7 60 -20z m90 -160 c0 -5 -4 -10 -10 -10 -5 0 -10 5 -10 10 0 6 5
10 10 10 6 0 10 -4 10 -10z m80 0 c0 -5 -7 -10 -15 -10 -8 0 -15 5 -15 10 0 6
7 10 15 10 8 0 15 -4 15 -10z m70 0 c0 -5 -7 -10 -15 -10 -8 0 -15 5 -15 10 0
6 7 10 15 10 8 0 15 -4 15 -10z"/>
<path d="M1960 1663 c-10 -12 -11 -18 -2 -21 14 -4 16 -32 2 -32 -6 0 -9 -48
-8 -127 l2 -128 3 123 c2 70 8 122 13 122 13 0 13 -221 0 -254 -6 -16 -6 -27
0 -31 6 -4 10 6 10 22 0 22 2 25 10 13 9 -13 11 -13 20 0 8 12 10 9 10 -13 0
-16 4 -26 10 -22 6 4 6 15 0 31 -13 33 -13 254 0 254 5 0 11 -52 13 -122 l3
-123 2 128 c1 79 -2 127 -8 127 -14 0 -12 28 2 32 9 3 7 10 -6 23 -18 19 -18
19 -12 -2 4 -12 2 -24 -3 -27 -6 -4 -8 -14 -5 -24 5 -14 4 -15 -5 -2 -10 13
-12 13 -22 0 -9 -13 -10 -12 -5 2 3 10 1 20 -5 24 -5 3 -7 14 -4 25 8 23 5 23
-15 2z m50 -183 c0 -73 -4 -120 -10 -120 -6 0 -10 47 -10 120 0 73 4 120 10
120 6 0 10 -47 10 -120z"/>
<path d="M1990 1655 c0 -8 5 -15 10 -15 6 0 10 7 10 15 0 8 -4 15 -10 15 -5 0
-10 -7 -10 -15z"/>
<path d="M1990 1310 c0 -5 5 -10 10 -10 6 0 10 5 10 10 0 6 -4 10 -10 10 -5 0
-10 -4 -10 -10z"/>
<path d="M1494 909 c-25 -27 -24 -97 2 -116 25 -19 68 -16 87 5 23 26 22 94
-1 115 -25 23 -65 21 -88 -4z"/>
<path d="M1717 893 c-2 -10 -8 -26 -12 -35 -6 -15 -2 -18 25 -18 27 0 31 3 25
18 -4 9 -10 25 -12 35 -3 9 -9 17 -13 17 -4 0 -10 -8 -13 -17z"/>
<path d="M1870 855 l0 -75 34 0 c47 0 66 22 66 75 0 50 -24 75 -72 75 l-28 0
0 -75z"/>
</g>
</svg>
